<svg width="237" height="116" viewBox="0 0 237 116" xmlns="http://www.w3.org/2000/svg">
<g id="Property 1=Flower Cardigan">
<path id="cloth" d="M84.1803 3.03201C84.6375 2.82044 85.3031 2.98828 85.6365 3.56596C101.781 31.5404 140.874 29.3501 153.064 3.82134C153.396 3.12658 154.144 2.92198 154.623 3.13903C181.582 15.3572 199.284 28.3528 211.373 45.3207C223.476 62.3077 230.102 83.4818 234.512 112.356C234.604 112.958 234.132 113.5 233.538 113.5H3.47117C2.87815 113.5 2.40543 112.956 2.5001 112.354C7.26355 82.0358 15.0978 60.6106 27.931 43.8514C40.765 27.0912 58.7469 14.8029 84.1803 3.03201Z" stroke="#323232" stroke-width="4" stroke-linecap="round" stroke-linejoin="round"/>
<path id="Line 6" d="M85.5 4C89.8927 46.3587 90.9471 71.3587 86 112.5" stroke="#323232" stroke-width="4"/>
<path id="Line 7" d="M154.776 4.5C150.384 46.8587 149.329 71.8587 154.276 113" stroke="#323232" stroke-width="4"/>
<path id="Subtract" fill-rule="evenodd" clip-rule="evenodd" d="M191.966 56.4019C190.246 51.1994 182.754 51.1994 181.034 56.4019L180.371 58.4072C179.601 60.7339 177.394 62.3091 174.905 62.3091H172.758C167.191 62.3091 164.876 69.3091 169.38 72.5244L171.116 73.7638C173.131 75.2017 173.974 77.7506 173.204 80.0772L172.541 82.0825C170.821 87.2851 176.881 91.6113 181.386 88.3959L183.122 87.1566C185.136 85.7186 187.864 85.7186 189.878 87.1566L191.614 88.3959C196.119 91.6113 202.179 87.2851 200.459 82.0825L199.796 80.0772C199.026 77.7506 199.869 75.2017 201.884 73.7638L203.62 72.5244C208.124 69.3091 205.809 62.3091 200.242 62.3091H198.095C195.606 62.3091 193.399 60.7339 192.629 58.4072L191.966 56.4019ZM186.5 77.9897C189.674 77.9897 192.247 75.4615 192.247 72.3428C192.247 69.2241 189.674 66.6959 186.5 66.6959C183.326 66.6959 180.753 69.2241 180.753 72.3428C180.753 75.4615 183.326 77.9897 186.5 77.9897Z" fill="#323232"/>
</g>
</svg>
