<svg width="237" height="116" viewBox="0 0 237 116" xmlns="http://www.w3.org/2000/svg">
<g id="Property 1=Small collar blouse">
<path id="cloth" d="M84.1803 3.03201C84.6375 2.82044 85.3031 2.98828 85.6365 3.56596C101.781 31.5404 140.874 29.3501 153.064 3.82134C153.396 3.12658 154.144 2.92198 154.623 3.13903C181.582 15.3572 199.284 28.3528 211.373 45.3207C223.476 62.3077 230.102 83.4818 234.512 112.356C234.604 112.958 234.132 113.5 233.538 113.5H3.47117C2.87815 113.5 2.40543 112.956 2.5001 112.354C7.26355 82.0358 15.0978 60.6106 27.931 43.8514C40.765 27.0912 58.7469 14.8029 84.1803 3.03201Z" stroke="#323232" stroke-width="4" stroke-linecap="round" stroke-linejoin="round"/>
<path id="Vector 8" d="M83.0001 3.5L84.4358 47.0519C84.4626 47.866 85.3993 48.3082 86.0449 47.8116L117 24" fill="white" fill-opacity="0.5" stroke="#323232" stroke-width="4" stroke-linecap="round"/>
<path id="Vector 9" d="M155 3.5L153.564 47.0519C153.537 47.866 152.601 48.3082 151.955 47.8116L121 24" fill="white" fill-opacity="0.5" stroke="#323232" stroke-width="4" stroke-linecap="round"/>
<line id="Line 6" x1="119" y1="24.4767" x2="120.011" y2="111.477" stroke="#323232" stroke-width="4"/>
<circle id="button" cx="133" cy="59.5" r="6" fill="#323232"/>
<circle id="button_2" cx="133" cy="89.5" r="6" fill="#323232"/>
</g>
</svg>
