<svg width="237" height="116" viewBox="0 0 237 116" fill="none" xmlns="http://www.w3.org/2000/svg">
<g id="Property 1=Big collar with buttons">
<path id="cloth" d="M84.1803 3.03201C84.6375 2.82044 85.3031 2.98828 85.6365 3.56596C101.781 31.5404 140.874 29.3501 153.064 3.82134C153.396 3.12658 154.144 2.92198 154.623 3.13903C181.582 15.3572 199.284 28.3528 211.373 45.3207C223.476 62.3077 230.102 83.4818 234.512 112.356C234.604 112.958 234.132 113.5 233.538 113.5H3.47117C2.87815 113.5 2.40543 112.956 2.5001 112.354C7.26355 82.0358 15.0978 60.6106 27.931 43.8514C40.765 27.0912 58.7469 14.8029 84.1803 3.03201Z" stroke="#323232" stroke-width="4" stroke-linecap="round" stroke-linejoin="round"/>
<path id="Vector 5" d="M52.5 21.678L80.8151 61.7097C81.173 62.2157 81.9004 62.2776 82.3386 61.8393L118.763 25.4147C119.165 25.0128 119.821 25.0263 120.206 25.4444L153.701 61.8109C154.12 62.265 154.845 62.2354 155.225 61.7487L186.5 21.678" fill="transparent" stroke="#323232" stroke-width="4" stroke-linecap="round" stroke-linejoin="round"/>
<circle id="Ellipse 28" cx="120.5" cy="57.678" r="9.5" fill="#323232"/>
<circle id="Ellipse 29" cx="120.5" cy="84.678" r="9.5" fill="#323232"/>
</g>
</svg>
