<svg width="237" height="116" viewBox="0 0 237 116" fill="none" xmlns="http://www.w3.org/2000/svg">
<g id="Property 1=Overall 1">
<path id="cloth" d="M84.1803 3.03201C84.6375 2.82044 85.3031 2.98828 85.6365 3.56596C101.781 31.5404 140.874 29.3501 153.064 3.82134C153.396 3.12658 154.144 2.92198 154.623 3.13903C181.582 15.3572 199.284 28.3528 211.373 45.3207C223.476 62.3077 230.102 83.4818 234.512 112.356C234.604 112.958 234.132 113.5 233.538 113.5H3.47117C2.87815 113.5 2.40543 112.956 2.5001 112.354C7.26355 82.0358 15.0978 60.6106 27.931 43.8514C40.765 27.0912 58.7469 14.8029 84.1803 3.03201Z" stroke="#323232" stroke-width="4" stroke-linecap="round" stroke-linejoin="round"/>
<g id="demi ">
<path id="Line 8" d="M57.8378 17.1777L57.8378 76.1777" stroke="#323232" stroke-width="4"/>
<path id="Line 10" d="M72.8378 10.1777L72.8378 69.1777" stroke="#323232" stroke-width="4"/>
<line id="Line 9" x1="177.838" y1="15.1777" x2="177.838" y2="76.1777" stroke="#323232" stroke-width="4"/>
<line id="Line 11" x1="162.838" y1="7.17773" x2="162.838" y2="68.1777" stroke="#323232" stroke-width="4"/>
<path id="Rectangle 9" d="M45.8378 69.1777C45.8378 63.6549 50.3149 59.1777 55.8378 59.1777H180.838C186.361 59.1777 190.838 63.6549 190.838 69.1777V113.178H45.8378V69.1777Z" fill="white" fill-opacity="0.5" stroke="#323232" stroke-width="4"/>
<circle id="button left" cx="63.7921" cy="74.647" r="9" fill="#323232"/>
<circle id="button right" cx="169.792" cy="74.647" r="9" fill="#323232"/>
</g>
</g>
</svg>
