<svg width="237" height="116" viewBox="0 0 237 116" xmlns="http://www.w3.org/2000/svg">
<g id="Property 1=Round Collar blouse">
<path id="cloth" d="M84.1803 3.03201C84.6375 2.82044 85.3031 2.98828 85.6365 3.56596C101.781 31.5404 140.874 29.3501 153.064 3.82134C153.396 3.12658 154.144 2.92198 154.623 3.13903C181.582 15.3572 199.284 28.3528 211.373 45.3207C223.476 62.3077 230.102 83.4818 234.512 112.356C234.604 112.958 234.132 113.5 233.538 113.5H3.47117C2.87815 113.5 2.40543 112.956 2.5001 112.354C7.26355 82.0358 15.0978 60.6106 27.931 43.8514C40.765 27.0912 58.7469 14.8029 84.1803 3.03201Z" stroke="#323232" stroke-width="4" stroke-linecap="round" stroke-linejoin="round"/>
<path id="collar left" d="M84.9999 3.67798C84.9999 3.67798 56.3378 36.678 81.3378 50.178C106.338 63.678 120.5 23.678 120.5 23.678" fill="white" fill-opacity="0.5" stroke="#323232" stroke-width="4" stroke-linecap="round" stroke-linejoin="round"/>
<path id="collar right" d="M155.338 6.17798C155.338 6.17798 184 39.178 159 52.678C134 66.178 119.838 26.178 119.838 26.178" fill="white" fill-opacity="0.5" stroke="#323232" stroke-width="4" stroke-linecap="round" stroke-linejoin="round"/>
</g>
</svg>
