<svg width="237" height="130" viewBox="0 0 237 130" xmlns="http://www.w3.org/2000/svg">
<g id="Property 1=High collar blouse">
<path id="cloth" d="M84.9545 16.6749C85.3017 16.5153 85.8279 16.5536 86.2723 16.9134L87.5309 15.3592L86.2723 16.9134C94.4011 23.4962 107.844 26.123 120.479 25.92C126.851 25.8176 133.145 24.9951 138.64 23.5265C144.101 22.0668 148.93 19.9274 152.231 17.0863L150.927 15.5704L152.231 17.0863C152.767 16.6254 153.375 16.5764 153.744 16.7424C181.051 29.0103 198.96 42.029 211.176 59.0449C223.404 76.0785 230.078 97.3256 234.512 126.356C234.604 126.958 234.132 127.5 233.538 127.5H3.47117C2.87815 127.5 2.40543 126.956 2.5001 126.354C7.28762 95.8826 15.1771 74.3939 28.1265 57.597C41.0777 40.7976 59.2407 28.4953 84.9545 16.6749Z" stroke="#323232" stroke-width="4" stroke-linecap="round" stroke-linejoin="round"/>
<path id="Union" d="M83.5 0L118.5 18.5L155 0V18.5L126 33.1986V129.5H111V33.0357L83.5 18.5V0Z" fill="#323232"/>
</g>
</svg>
