<svg width="237" height="116" viewBox="0 0 237 116" xmlns="http://www.w3.org/2000/svg">
<g id="Property 1=T-shirt with pocket">
<path id="cloth" d="M84.1803 3.53201C84.6375 3.32044 85.3031 3.48828 85.6365 4.06596C101.781 32.0404 140.874 29.8501 153.064 4.32134C153.396 3.62658 154.144 3.42198 154.623 3.63903C181.582 15.8572 199.284 28.8528 211.373 45.8207C223.476 62.8077 230.102 83.9818 234.512 112.856C234.604 113.458 234.132 114 233.538 114H3.47117C2.87815 114 2.40543 113.456 2.5001 112.854C7.26355 82.5358 15.0978 61.1106 27.931 44.3514C40.765 27.5912 58.7469 15.3029 84.1803 3.53201Z" stroke="#323232" stroke-width="4" stroke-linecap="round" stroke-linejoin="round"/>
<path id="Line 5" d="M168.5 10.5C153 46.9999 88.5 47.4999 73 7.99995" fill="transparent" stroke="#323232" stroke-width="4"/>
<g id="pocket">
<path id="Rectangle 8" d="M152 52.8218H195V77.5263C195 89.4005 185.374 99.0263 173.5 99.0263C161.626 99.0263 152 89.4004 152 77.5263V52.8218Z" stroke="#323232" stroke-width="4"/>
<line id="Line 5_2" x1="152.136" y1="64.8445" x2="194.864" y2="64.8445" stroke="#323232" stroke-width="4"/>
</g>
</g>
</svg>
