<svg width="237" height="116" viewBox="0 0 237 116" xmlns="http://www.w3.org/2000/svg">
<g id="Property 1=Sweater vest">
<path id="cloth" d="M84.1803 3.03201C84.6375 2.82044 85.3031 2.98828 85.6365 3.56596C101.781 31.5404 140.874 29.3501 153.064 3.82134C153.396 3.12658 154.144 2.92198 154.623 3.13903C181.582 15.3572 199.284 28.3528 211.373 45.3207C223.476 62.3077 230.102 83.4818 234.512 112.356C234.604 112.958 234.132 113.5 233.538 113.5H3.47117C2.87815 113.5 2.40543 112.956 2.5001 112.354C7.26355 82.0358 15.0978 60.6106 27.931 43.8514C40.765 27.0912 58.7469 14.8029 84.1803 3.03201Z" stroke="#323232" stroke-width="4" stroke-linecap="round" stroke-linejoin="round"/>
<path id="Union" d="M118.85 57.8331L120.534 60.2912L122.171 57.8013L156.727 5.23788C173.564 13.0304 182.112 18.781 197 31.6178V109.703H41V31.6187C55.8931 18.813 65.8038 13.0513 82.8023 5.22279L118.85 57.8331Z" fill="#323232" stroke="#323232" stroke-width="4"/>
</g>
</svg>
