<svg width="238" height="116" viewBox="0 0 238 116" xmlns="http://www.w3.org/2000/svg">
<g id="Property 1=Simple Cardigan">
<path id="cloth" d="M84.1803 3.03201C84.6375 2.82044 85.3031 2.98828 85.6365 3.56596C101.781 31.5404 140.874 29.3501 153.064 3.82134C153.396 3.12658 154.144 2.92198 154.623 3.13903C181.582 15.3572 199.284 28.3528 211.373 45.3207C223.476 62.3077 230.102 83.4818 234.512 112.356C234.604 112.958 234.132 113.5 233.538 113.5H3.47117C2.87815 113.5 2.40543 112.956 2.5001 112.354C7.26355 82.0358 15.0978 60.6106 27.931 43.8514C40.765 27.0912 58.7469 14.8029 84.1803 3.03201Z" stroke="#323232" stroke-width="4" stroke-linecap="round" stroke-linejoin="round"/>
<path id="left" d="M2.5001 112.354C7.2145 82.348 14.9367 61.0534 27.5351 44.372C40.1322 27.6923 57.7489 15.4328 82.617 3.7606C83.253 3.4621 84 3.92376 84 4.65017V112.5C84 113.052 83.5523 113.5 83 113.5H3.47118C2.87815 113.5 2.40543 112.956 2.5001 112.354Z" fill="#323232" stroke="#323232" stroke-width="4" stroke-linecap="round" stroke-linejoin="round"/>
<path id="right" d="M235.5 112.354C230.786 82.348 223.063 61.0534 210.465 44.372C197.868 27.6923 180.251 15.4328 155.383 3.7606C154.747 3.4621 154 3.92376 154 4.65017V112.5C154 113.052 154.448 113.5 155 113.5H234.529C235.122 113.5 235.595 112.956 235.5 112.354Z" fill="#323232" stroke="#323232" stroke-width="4" stroke-linecap="round" stroke-linejoin="round"/>
</g>
</svg>
