<svg width="350" height="390" viewBox="0 0 350 390" fill="none" xmlns="http://www.w3.org/2000/svg">
<g id="Property 1=Short hair and glasses">
<g id="neck">
<rect id="neck_2" x="141" y="185" width="68.2139" height="128.131" rx="13.7769"  stroke="#323232" stroke-width="4" stroke-linecap="round"/>
<path id="neck shadow" d="M142.896 267.634V226.678H211.5C206.333 247.68 175.523 268.768 142.896 267.634Z" fill="#7E7E7E" fill-opacity="0.45"/>
</g>
<g id="Face">
<g id="ears">
<path id="left ear" d="M135 181.297C135 192.986 124.45 202.797 111 202.797C97.5501 202.797 87 192.986 87 181.297C87 169.609 97.5501 159.797 111 159.797C124.45 159.797 135 169.609 135 181.297Z"  stroke="#323232" stroke-width="4"/>
<path id="right ear" d="M218 181.297C218 192.986 228.55 202.797 242 202.797C255.45 202.797 266 192.986 266 181.297C266 169.609 255.45 159.797 242 159.797C228.55 159.797 218 169.609 218 181.297Z"  stroke="#323232" stroke-width="4"/>
</g>
<g id="face" clip-path="url(#clip0_23_3225)">
<path id="face_2" d="M243 177.129C243 197.469 237.073 212.968 226.053 223.397C215.016 233.842 198.583 239.475 177.03 239.475C155.477 239.475 138.768 233.842 127.461 223.382C116.178 212.943 110 197.445 110 177.129C110 156.77 116.211 135.524 127.729 119.418C139.223 103.346 155.922 92.4753 177.03 92.4753C198.131 92.4753 214.56 103.339 225.788 119.4C237.045 135.501 243 156.751 243 177.129Z"  stroke="#323232" stroke-width="4" stroke-linecap="round"/>
<path id="nose" d="M176.842 175.475C174.975 183.863 174 188.246 174 196.973C176.501 198.527 178.892 198.916 183 198.872" stroke="#323232" stroke-width="4" stroke-linecap="round" stroke-linejoin="round"/>
<g id="eyes">
<g id="left">
<path id="left_2" d="M141.768 182.547C143.829 182.547 145.657 181.432 146.953 179.704C148.249 177.977 149.035 175.613 149.035 173.024C149.035 170.434 148.249 168.07 146.953 166.343C145.657 164.615 143.829 163.5 141.768 163.5C139.706 163.5 137.878 164.615 136.582 166.343C135.287 168.07 134.5 170.434 134.5 173.024C134.5 175.613 135.287 177.977 136.582 179.704C137.878 181.432 139.706 182.547 141.768 182.547Z" fill="#323232" stroke="#323232" stroke-linecap="round"/>
<circle id="Ellipse 19" cx="144.616" cy="170.809" r="2.5"  stroke="#323232"/>
</g>
<g id="right">
<path id="right_2" d="M213.768 182.547C215.829 182.547 217.657 181.432 218.953 179.704C220.249 177.977 221.035 175.613 221.035 173.024C221.035 170.434 220.249 168.07 218.953 166.343C217.657 164.615 215.829 163.5 213.768 163.5C211.706 163.5 209.878 164.615 208.582 166.343C207.287 168.07 206.5 170.434 206.5 173.024C206.5 175.613 207.287 177.977 208.582 179.704C209.878 181.432 211.706 182.547 213.768 182.547Z" fill="#323232" stroke="#323232" stroke-linecap="round"/>
<circle id="Ellipse 19_2" cx="216.616" cy="170.809" r="2" />
</g>
</g>
<path id="mouth" d="M168 210.475C171 214.142 178.8 219.275 186 210.475" stroke="#323232" stroke-width="4" stroke-linecap="round" stroke-linejoin="round"/>
<g id="blushes">
<g id="Ellipse 46" filter="url(#filter0_f_23_3225)">
<ellipse cx="139.5" cy="207.5" rx="9.5" ry="5.5" fill="#FC9D80"/>
</g>
<g id="Ellipse 47" filter="url(#filter1_f_23_3225)">
<ellipse cx="218.5" cy="207.5" rx="9.5" ry="5.5" fill="#FC9D80"/>
</g>
</g>
</g>
<path id="hair" d="M96.5001 119.797C94.8598 97.724 101 86.2973 119.5 81.7973C119.5 81.7973 174.5 27.2974 223 63.2974C271.5 99.2973 241.5 160.5 241.5 160.5C230 145 224.966 141.893 226 122.297C184.157 134.871 166.716 131.147 143.5 105.297C140.481 121.987 137 128 125 135C127.147 147.313 114.5 158 111 161.5C99.8362 149.258 97.7231 140.302 96.5001 119.797Z" fill="#323232"/>
</g>
</g>
<defs>
<filter id="filter0_f_23_3225" x="118" y="190" width="43" height="35" filterUnits="userSpaceOnUse" color-interpolation-filters="sRGB">
<feFlood flood-opacity="0" result="BackgroundImageFix"/>
<feBlend mode="normal" in="SourceGraphic" in2="BackgroundImageFix" result="shape"/>
<feGaussianBlur stdDeviation="6" result="effect1_foregroundBlur_23_3225"/>
</filter>
<filter id="filter1_f_23_3225" x="197" y="190" width="43" height="35" filterUnits="userSpaceOnUse" color-interpolation-filters="sRGB">
<feFlood flood-opacity="0" result="BackgroundImageFix"/>
<feBlend mode="normal" in="SourceGraphic" in2="BackgroundImageFix" result="shape"/>
<feGaussianBlur stdDeviation="6" result="effect1_foregroundBlur_23_3225"/>
</filter>
<clipPath id="clip0_23_3225">
<rect width="137" height="190"  transform="translate(108 51.7974)"/>
</clipPath>
</defs>
</svg>
