<svg width="350" height="390" viewBox="0 0 350 390" fill="none" xmlns="http://www.w3.org/2000/svg">
<g id="Property 1=Short hair and beard">
<g id="neck">
<rect id="neck_2" x="141" y="185" width="68.2139" height="128.131" rx="13.7769"  stroke="#323232" stroke-width="4" stroke-linecap="round"/>
<path id="neck shadow" d="M142.896 267.634V226.678H211.5C206.333 247.68 175.523 268.768 142.896 267.634Z" fill="#7E7E7E" fill-opacity="0.45"/>
</g>
<g id="face">
<g id="ears">
<path id="left ear" d="M133 178.178C133 189.867 122.45 199.678 109 199.678C95.5501 199.678 85 189.867 85 178.178C85 166.49 95.5501 156.678 109 156.678C122.45 156.678 133 166.49 133 178.178Z"  stroke="#323232" stroke-width="4"/>
<path id="right ear" d="M216 178.178C216 189.867 226.55 199.678 240 199.678C253.45 199.678 264 189.867 264 178.178C264 166.49 253.45 156.678 240 156.678C226.55 156.678 216 166.49 216 178.178Z"  stroke="#323232" stroke-width="4"/>
</g>
<path id="face_2" d="M241 171.261C241 193.713 235.042 210.834 223.986 222.337C212.941 233.828 196.532 240 175.03 240C153.526 240 136.842 233.827 125.529 222.321C114.211 210.81 108 193.69 108 171.261C108 148.804 114.232 125.379 125.779 107.629C137.311 89.9028 154.009 78 175.03 78C196.043 78 212.472 89.8934 223.74 107.612C235.025 125.358 241 148.787 241 171.261Z"  stroke="#323232" stroke-width="4" stroke-linecap="round"/>
<path id="nose" d="M175 172C173.029 178.812 172 182.371 172 189.458C174.64 190.72 177.163 191.036 181.5 191" stroke="#323232" stroke-width="4" stroke-linecap="round" stroke-linejoin="round"/>
<g id="eyes">
<g id="left">
<path id="left eye" d="M139.768 182.225C141.829 182.225 143.657 181.11 144.953 179.382C146.249 177.655 147.035 175.291 147.035 172.702C147.035 170.112 146.249 167.748 144.953 166.021C143.657 164.293 141.829 163.178 139.768 163.178C137.706 163.178 135.878 164.293 134.582 166.021C133.287 167.748 132.5 170.112 132.5 172.702C132.5 175.291 133.287 177.655 134.582 179.382C135.878 181.11 137.706 182.225 139.768 182.225Z" fill="#323232" stroke="#323232" stroke-linecap="round"/>
<circle id="Ellipse 19" cx="142.616" cy="170.487" r="2.5"  stroke="#323232"/>
</g>
<g id="right">
<path id="left eye_2" d="M211.768 182.225C213.829 182.225 215.657 181.11 216.953 179.382C218.249 177.655 219.035 175.291 219.035 172.702C219.035 170.112 218.249 167.748 216.953 166.021C215.657 164.293 213.829 163.178 211.768 163.178C209.706 163.178 207.878 164.293 206.582 166.021C205.287 167.748 204.5 170.112 204.5 172.702C204.5 175.291 205.287 177.655 206.582 179.382C207.878 181.11 209.706 182.225 211.768 182.225Z" fill="#323232" stroke="#323232" stroke-linecap="round"/>
<circle id="Ellipse 19_2" cx="214.616" cy="170.487" r="2" />
</g>
</g>
<path id="mouth" d="M166 206C169 209.667 176.8 214.8 184 206" stroke="#323232" stroke-width="4" stroke-linecap="round" stroke-linejoin="round"/>
<path id="mustache" d="M145 218.494C145 207.728 153.728 199 164.494 199H185.506C196.272 199 205 207.728 205 218.494C205 220.036 204.15 221.453 202.789 222.179L201.029 223.118C198.824 224.294 196.176 224.294 193.971 223.118L193.75 223C191.406 221.75 188.594 221.75 186.25 223C183.906 224.25 181.094 224.25 178.75 223C176.406 221.75 173.594 221.75 171.25 223C168.906 224.25 166.094 224.25 163.75 223C161.406 221.75 158.594 221.75 156.25 223L156.029 223.118C153.824 224.294 151.176 224.294 148.971 223.118L147.211 222.179C145.85 221.453 145 220.036 145 218.494Z" fill="#323232"/>
<path id="hair" d="M107 161V118C107 91.4903 128.49 70 155 70H193.528C219.83 70 241.234 91.1683 241.525 117.469L242 160.445C238.396 147.923 234.715 139.88 227.059 132.599C219.893 125.783 208.862 127.057 200.413 132.198C181.229 143.871 166.562 144.611 147.613 133.41C138.288 127.897 125.91 126.843 119.313 135.435C113.977 142.385 110.899 150.132 107 161Z" fill="#323232"/>
</g>
<g id="blushes">
<g id="Ellipse 46" filter="url(#filter0_f_23_3227)">
<ellipse cx="134.5" cy="205.5" rx="9.5" ry="5.5" fill="#FC9D80"/>
</g>
<g id="Ellipse 47" filter="url(#filter1_f_23_3227)">
<ellipse cx="213.5" cy="205.5" rx="9.5" ry="5.5" fill="#FC9D80"/>
</g>
</g>
</g>
<defs>
<filter id="filter0_f_23_3227" x="113" y="188" width="43" height="35" filterUnits="userSpaceOnUse" color-interpolation-filters="sRGB">
<feFlood flood-opacity="0" result="BackgroundImageFix"/>
<feBlend mode="normal" in="SourceGraphic" in2="BackgroundImageFix" result="shape"/>
<feGaussianBlur stdDeviation="6" result="effect1_foregroundBlur_23_3227"/>
</filter>
<filter id="filter1_f_23_3227" x="192" y="188" width="43" height="35" filterUnits="userSpaceOnUse" color-interpolation-filters="sRGB">
<feFlood flood-opacity="0" result="BackgroundImageFix"/>
<feBlend mode="normal" in="SourceGraphic" in2="BackgroundImageFix" result="shape"/>
<feGaussianBlur stdDeviation="6" result="effect1_foregroundBlur_23_3227"/>
</filter>
</defs>
</svg>
