<svg width="350" height="390" viewBox="0 0 350 390" fill="none" xmlns="http://www.w3.org/2000/svg">
<g id="Property 1=Male puff hair">
<path id="hair" d="M142.55 239.356C142.964 239.279 143.367 239.143 143.746 238.96L172.835 224.941C174.354 224.209 176.14 224.292 177.584 225.161L195.649 236.035C196.302 236.428 197.045 236.669 197.805 236.729C216.358 238.195 224.494 235.152 232.621 225.534C234.195 223.671 236.836 223.024 239.15 223.794C244.106 225.443 252.81 227.171 259.5 222.221C263.854 218.999 265.34 214.133 265.638 209.689C265.922 205.441 270.836 200.809 275.062 200.294C279.378 199.768 284.323 197.787 288.5 192.5C294.197 185.289 294.019 178.273 292.849 173.626C292.086 170.595 293.208 166.714 295.239 164.338C297.901 161.224 300.761 155.807 300.987 146.809C301.223 137.463 298.103 131.292 295.222 127.615C293.215 125.054 292.756 120.873 294.193 117.953C296.142 113.993 297.585 108.13 294.5 101.5C292.982 98.2382 290.779 96.2869 288.368 95.1777C283.999 93.1676 277.498 85.8503 277.855 81.0544C278.359 74.2948 277.061 65.7884 270.805 56.9857C261.879 44.4284 250.108 40.8293 242.605 39.887C239.095 39.4463 235.678 35.7452 234.316 32.4806C233.082 29.5238 230.558 26.0225 225.531 22.7054C217.475 17.3903 210.116 18.4699 206.11 19.7771C204.135 20.4218 201.859 20.3012 200.058 19.2655C195.602 16.7041 186.395 12.6235 175.269 14.4607C165.161 16.1299 157.901 24.1253 153.992 29.6492C152.121 32.2939 148.131 33.1923 145.145 31.9334C139.865 29.7067 131.003 27.6992 119.46 31.3839C106.361 35.5653 102.745 46.3707 101.778 52.9369C101.356 55.7996 99.0015 58.3342 96.1596 58.8788C90.2791 60.0057 80.5519 63.1878 72.4609 72.1732C63.5357 82.0849 63.3117 95.1377 63.9229 101.834C64.1528 104.353 62.7657 106.935 60.7854 108.508C57.2839 111.289 52.3376 117.052 50.4706 128.15C49.0625 136.52 51.0292 142.405 53.5284 146.302C55.6553 149.618 55.8548 155.864 53.898 159.284C52.0382 162.534 50.4706 167.104 50.4706 173.279C50.4706 179.78 53.0554 184.016 56.0103 186.734C59.0129 189.496 61.2673 196.292 61.8072 200.335C62.2136 203.38 63.8058 207.124 67.7178 211.464C73.9102 218.334 80.6386 218.611 85.4772 217.442C88.9234 216.609 93.4695 218.198 95.4977 221.106C97.2919 223.679 99.9832 226.548 103.937 228.821C108.048 231.186 112.321 231.501 115.844 231.099C119.583 230.672 123.76 233.727 126.277 236.526C129.481 240.089 135.47 240.67 142.55 239.356Z" fill="#323232"/>
<g id="neck">
<rect id="neck_2" x="141" y="185" width="68.2139" height="128.131" rx="13.7769"  stroke="#323232" stroke-width="4" stroke-linecap="round"/>
<path id="neck shadow" d="M142.896 267.634V226.678H211.5C206.333 247.68 175.523 268.768 142.896 267.634Z" fill="#7E7E7E" fill-opacity="0.45"/>
</g>
<g id="ears">
<path id="left ear" d="M131 179.297C131 190.986 120.45 200.797 107 200.797C93.5501 200.797 83 190.986 83 179.297C83 167.609 93.5501 157.797 107 157.797C120.45 157.797 131 167.609 131 179.297Z"  stroke="#323232" stroke-width="4"/>
<path id="right ear" d="M214 179.297C214 190.986 224.55 200.797 238 200.797C251.45 200.797 262 190.986 262 179.297C262 167.609 251.45 157.797 238 157.797C224.55 157.797 214 167.609 214 179.297Z"  stroke="#323232" stroke-width="4"/>
</g>
<g id="face" clip-path="url(#clip0_23_3228)">
<path id="face_2" d="M239 175.129C239 195.469 233.073 210.968 222.053 221.397C211.016 231.842 194.583 237.475 173.03 237.475C151.477 237.475 134.768 231.842 123.461 221.382C112.178 210.943 106 195.445 106 175.129C106 154.77 112.211 133.524 123.729 117.418C135.223 101.346 151.922 90.4753 173.03 90.4753C194.131 90.4753 210.56 101.339 221.788 117.4C233.045 133.501 239 154.751 239 175.129Z"  stroke="#323232" stroke-width="4" stroke-linecap="round"/>
<path id="nose" d="M172.842 173.475C170.975 181.863 170 186.246 170 194.973C172.501 196.527 174.892 196.916 179 196.872" stroke="#323232" stroke-width="4" stroke-linecap="round" stroke-linejoin="round"/>
<g id="eyes">
<g id="left">
<path id="left_2" d="M137.768 180.547C139.829 180.547 141.657 179.432 142.953 177.704C144.249 175.977 145.035 173.613 145.035 171.024C145.035 168.434 144.249 166.07 142.953 164.343C141.657 162.615 139.829 161.5 137.768 161.5C135.706 161.5 133.878 162.615 132.582 164.343C131.287 166.07 130.5 168.434 130.5 171.024C130.5 173.613 131.287 175.977 132.582 177.704C133.878 179.432 135.706 180.547 137.768 180.547Z" fill="#323232" stroke="#323232" stroke-linecap="round"/>
<circle id="Ellipse 19" cx="140.616" cy="168.809" r="2.5"  stroke="#323232"/>
</g>
<g id="right">
<path id="right_2" d="M209.768 180.547C211.829 180.547 213.657 179.432 214.953 177.704C216.249 175.977 217.035 173.613 217.035 171.024C217.035 168.434 216.249 166.07 214.953 164.343C213.657 162.615 211.829 161.5 209.768 161.5C207.706 161.5 205.878 162.615 204.582 164.343C203.287 166.07 202.5 168.434 202.5 171.024C202.5 173.613 203.287 175.977 204.582 177.704C205.878 179.432 207.706 180.547 209.768 180.547Z" fill="#323232" stroke="#323232" stroke-linecap="round"/>
<circle id="Ellipse 19_2" cx="212.616" cy="168.809" r="2" />
</g>
</g>
<path id="mouth" d="M164 208.475C167 212.142 174.8 217.275 182 208.475" stroke="#323232" stroke-width="4" stroke-linecap="round" stroke-linejoin="round"/>
<g id="blushes">
<g id="Ellipse 46" filter="url(#filter0_f_23_3228)">
<ellipse cx="135.5" cy="202.5" rx="9.5" ry="5.5" fill="#FC9D80"/>
</g>
<g id="Ellipse 47" filter="url(#filter1_f_23_3228)">
<ellipse cx="214.5" cy="202.5" rx="9.5" ry="5.5" fill="#FC9D80"/>
</g>
</g>
<g id="Female hair bangs">
<path id="Hair bangs" d="M121.621 148.489C118.652 153.865 114.501 156.83 108 161.006L115.5 98.0056C115.5 98.0056 128.5 79.5056 167 79.0056C205.5 78.5056 241.5 111.506 241.5 111.506V162.006C227.304 159.473 216.246 156.926 210.23 146.994C206.279 140.473 197.671 136.182 191.498 140.657C187.947 143.231 183.121 143.141 179.669 140.436L174.505 136.388C170.111 132.944 163.922 132.985 159.574 136.487L155.292 139.937C151.488 143.001 146.207 143.454 141.937 141.082L141.169 140.655C133.976 136.659 125.598 141.285 121.621 148.489Z" fill="#323232"/>
</g>
</g>
</g>
<defs>
<filter id="filter0_f_23_3228" x="114" y="185" width="43" height="35" filterUnits="userSpaceOnUse" color-interpolation-filters="sRGB">
<feFlood flood-opacity="0" result="BackgroundImageFix"/>
<feBlend mode="normal" in="SourceGraphic" in2="BackgroundImageFix" result="shape"/>
<feGaussianBlur stdDeviation="6" result="effect1_foregroundBlur_23_3228"/>
</filter>
<filter id="filter1_f_23_3228" x="193" y="185" width="43" height="35" filterUnits="userSpaceOnUse" color-interpolation-filters="sRGB">
<feFlood flood-opacity="0" result="BackgroundImageFix"/>
<feBlend mode="normal" in="SourceGraphic" in2="BackgroundImageFix" result="shape"/>
<feGaussianBlur stdDeviation="6" result="effect1_foregroundBlur_23_3228"/>
</filter>
<clipPath id="clip0_23_3228">
<rect width="137" height="190"  transform="translate(104 49.7974)"/>
</clipPath>
</defs>
</svg>
