<svg width="350" height="390" viewBox="0 0 350 390" fill="none" xmlns="http://www.w3.org/2000/svg">
<g id="Property 1=Beanie and beard">
<g id="neck">
<rect id="neck_2" x="141" y="185" width="68.2139" height="128.131" rx="13.7769"  stroke="#323232" stroke-width="4" stroke-linecap="round"/>
<path id="neck shadow" d="M142.896 267.634V226.678H211.5C206.333 247.68 175.523 268.768 142.896 267.634Z" fill="#7E7E7E" fill-opacity="0.45"/>
</g>
<g id="Face">
<g id="ears">
<path id="left ear" d="M133 200.5C133 212.189 122.45 222 109 222C95.5501 222 85 212.189 85 200.5C85 188.811 95.5501 179 109 179C122.45 179 133 188.811 133 200.5Z"  stroke="#323232" stroke-width="4"/>
<path id="right ear" d="M216 200.5C216 212.189 226.55 222 240 222C253.45 222 264 212.189 264 200.5C264 188.811 253.45 179 240 179C226.55 179 216 188.811 216 200.5Z"  stroke="#323232" stroke-width="4"/>
</g>
<g id="face">
<path id="face_2" d="M241 196.331C241 216.672 235.073 232.171 224.053 242.6C213.016 253.045 196.583 258.678 175.03 258.678C153.477 258.678 136.768 253.044 125.461 242.584C114.178 232.146 108 216.647 108 196.331C108 175.972 114.211 154.726 125.729 138.62C137.223 122.549 153.922 111.678 175.03 111.678C196.131 111.678 212.56 122.541 223.788 138.603C235.045 154.704 241 175.954 241 196.331Z"  stroke="#323232" stroke-width="4" stroke-linecap="round"/>
<path id="nose" d="M174.842 199.678C172.975 208.066 172 212.449 172 221.175C174.501 222.73 176.892 223.119 181 223.075" stroke="#323232" stroke-width="4" stroke-linecap="round" stroke-linejoin="round"/>
<g id="eyes">
<g id="left">
<path id="left_2" d="M139.768 206.75C141.829 206.75 143.657 205.635 144.953 203.907C146.249 202.179 147.035 199.816 147.035 197.226C147.035 194.637 146.249 192.273 144.953 190.546C143.657 188.818 141.829 187.703 139.768 187.703C137.706 187.703 135.878 188.818 134.582 190.546C133.287 192.273 132.5 194.637 132.5 197.226C132.5 199.816 133.287 202.179 134.582 203.907C135.878 205.635 137.706 206.75 139.768 206.75Z" fill="#323232" stroke="#323232" stroke-linecap="round"/>
<circle id="Ellipse 19" cx="142.616" cy="195.011" r="2.5"  stroke="#323232"/>
</g>
<g id="right">
<path id="right_2" d="M211.768 206.75C213.829 206.75 215.657 205.635 216.953 203.907C218.249 202.179 219.035 199.816 219.035 197.226C219.035 194.637 218.249 192.273 216.953 190.546C215.657 188.818 213.829 187.703 211.768 187.703C209.706 187.703 207.878 188.818 206.582 190.546C205.287 192.273 204.5 194.637 204.5 197.226C204.5 199.816 205.287 202.179 206.582 203.907C207.878 205.635 209.706 206.75 211.768 206.75Z" fill="#323232" stroke="#323232" stroke-linecap="round"/>
<circle id="Ellipse 19_2" cx="214.616" cy="195.011" r="2" />
</g>
</g>
</g>
<g id="mouth">
<path id="beard" d="M107 207.703C156.214 238.323 193.987 237.853 242 207.703V255.203C242 290.549 213.346 319.203 178 319.203H171C135.654 319.203 107 290.549 107 255.203V207.703Z" fill="#323232"/>
<ellipse id="Ellipse 25" cx="176" cy="250.203" rx="17" ry="12" />
<path id="mouth_2" d="M167 248.203C170 251.869 177.8 257.003 185 248.203" stroke="#323232" stroke-width="4" stroke-linecap="round" stroke-linejoin="round"/>
</g>
</g>
<g id="beanie">
<path id="Ellipse 26" d="M239 158.203C239 140.433 232.204 123.391 220.108 110.826C208.012 98.2615 191.606 91.2026 174.5 91.2026C157.394 91.2026 140.988 98.2615 128.892 110.826C116.796 123.391 110 140.433 110 158.203L239 158.203Z" fill="#323232"/>
<g id="shadow" filter="url(#filter0_f_23_3232)">
<rect x="112" y="152.203" width="123" height="7" fill="#1A1A1A" fill-opacity="0.65"/>
</g>
<rect id="Rectangle 10" x="101" y="156.203" width="147" height="23" rx="11.5" fill="#323232"/>
</g>
</g>
<defs>
<filter id="filter0_f_23_3232" x="100" y="140.203" width="147" height="31" filterUnits="userSpaceOnUse" color-interpolation-filters="sRGB">
<feFlood flood-opacity="0" result="BackgroundImageFix"/>
<feBlend mode="normal" in="SourceGraphic" in2="BackgroundImageFix" result="shape"/>
<feGaussianBlur stdDeviation="6" result="effect1_foregroundBlur_23_3232"/>
</filter>
</defs>
</svg>
