<svg width="350" height="390" viewBox="0 0 350 390" fill="none" xmlns="http://www.w3.org/2000/svg">
<g id="Property 1=Male hijab 2">
<g id="face">
<path id="Hijab back" d="M289.401 245.5C290.401 301 289.401 340 182.401 346C112.056 349.945 52.9009 347 63.4009 245.5C63.4009 189.443 113.993 144 176.401 144C238.809 144 288.401 190 289.401 245.5Z" fill="#1A1A1A"/>
<g id="neck">
<rect id="neck_2" x="141" y="185" width="68.2139" height="128.131" rx="13.7769"  stroke="#323232" stroke-width="4" stroke-linecap="round"/>
<path id="neck shadow" d="M142.896 267.634V226.678H211.5C206.333 247.68 175.523 268.768 142.896 267.634Z" fill="#7E7E7E" fill-opacity="0.45"/>
</g>
<g id="ears">
<path id="left ear" d="M133.401 177.178C133.401 188.866 122.851 198.678 109.401 198.678C95.951 198.678 85.4009 188.866 85.4009 177.178C85.4009 165.489 95.951 155.678 109.401 155.678C122.851 155.678 133.401 165.489 133.401 177.178Z"  stroke="#323232" stroke-width="4"/>
<path id="right ear" d="M216.401 177.178C216.401 188.866 226.951 198.678 240.401 198.678C253.851 198.678 264.401 188.866 264.401 177.178C264.401 165.489 253.851 155.678 240.401 155.678C226.951 155.678 216.401 165.489 216.401 177.178Z"  stroke="#323232" stroke-width="4"/>
</g>
<path id="face_2" d="M241.401 170.261C241.401 192.713 235.443 209.834 224.387 221.337C213.342 232.828 196.933 239 175.431 239C153.927 239 137.243 232.827 125.93 221.321C114.612 209.81 108.401 192.69 108.401 170.261C108.401 147.834 114.61 131.229 125.9 120.22C137.198 109.203 153.884 103.5 175.431 103.5C196.977 103.5 213.387 109.202 224.416 120.204C235.444 131.205 241.401 147.811 241.401 170.261Z"  stroke="#323232" stroke-width="4" stroke-linecap="round"/>
<path id="mustache" d="M151.901 236L138.901 231.5L140.579 222.269C142.535 211.512 151.515 203.343 162.438 202.848C172.648 202.385 181.099 202.384 190.724 202.844C201.001 203.335 209.58 210.717 212.076 220.699L214.401 230L199.901 236L198.913 227.306C198.052 219.726 191.638 214 184.009 214H167.994C160.493 214 154.145 219.541 153.132 226.973L151.901 236Z" fill="#323232"/>
<path id="nose" d="M175.401 174C173.43 180.812 172.401 184.371 172.401 191.458C175.04 192.72 177.564 193.036 181.901 193" stroke="#323232" stroke-width="4" stroke-linecap="round" stroke-linejoin="round"/>
<g id="eyes">
<g id="Group 1">
<path id="left eye" d="M140.169 187.225C142.23 187.225 144.058 186.11 145.354 184.382C146.65 182.654 147.436 180.291 147.436 177.701C147.436 175.112 146.65 172.748 145.354 171.021C144.058 169.293 142.23 168.178 140.169 168.178C138.107 168.178 136.279 169.293 134.983 171.021C133.687 172.748 132.901 175.112 132.901 177.701C132.901 180.291 133.687 182.654 134.983 184.382C136.279 186.11 138.107 187.225 140.169 187.225Z" fill="#323232" stroke="#323232" stroke-linecap="round"/>
<circle id="Ellipse 19" cx="143.017" cy="175.486" r="2.5"  stroke="#323232"/>
</g>
<g id="Group 1_2">
<path id="left eye_2" d="M212.169 187.225C214.23 187.225 216.058 186.11 217.354 184.382C218.65 182.654 219.436 180.291 219.436 177.701C219.436 175.112 218.65 172.748 217.354 171.021C216.058 169.293 214.23 168.178 212.169 168.178C210.107 168.178 208.279 169.293 206.983 171.021C205.687 172.748 204.901 175.112 204.901 177.701C204.901 180.291 205.687 182.654 206.983 184.382C208.279 186.11 210.107 187.225 212.169 187.225Z" fill="#323232" stroke="#323232" stroke-linecap="round"/>
<circle id="Ellipse 19_2" cx="215.017" cy="175.486" r="2" />
</g>
</g>
<path id="mouth" d="M167.401 221C170.401 224.667 178.201 229.8 185.401 221" stroke="#323232" stroke-width="4" stroke-linecap="round" stroke-linejoin="round"/>
<g id="Hijab front">
<path id="Vector 10" d="M117.901 163.66C110.465 241 77.9009 226 70.4008 308.5C62.2849 306.541 33.4009 245 70.4009 181C107.401 117 105.901 72.4999 175.401 71.4999C244.901 70.4999 256.133 123 282.517 181C308.901 239 288.531 304.623 279.901 307.5C279.901 236.5 233.901 238 235.401 163.66C187.527 141.181 161.444 141.032 117.901 163.66Z" fill="#323232"/>
<path id="Rectangle 20" d="M83.4009 131.76C83.4009 126.657 87.158 122.317 92.2111 121.61C156.525 112.611 196.203 112.972 260.492 121.646C265.593 122.334 269.401 126.704 269.401 131.852C269.401 138.221 263.682 143.066 257.386 142.107C195.141 132.631 155.972 132.226 95.4832 141.97C89.1744 142.986 83.4009 138.15 83.4009 131.76Z" fill="#1A1A1A"/>
</g>
</g>
<g id="blushes">
<g id="Ellipse 46" filter="url(#filter0_f_23_3231)">
<ellipse cx="136.5" cy="200.5" rx="9.5" ry="5.5" fill="#FC9D80"/>
</g>
<g id="Ellipse 47" filter="url(#filter1_f_23_3231)">
<ellipse cx="215.5" cy="200.5" rx="9.5" ry="5.5" fill="#FC9D80"/>
</g>
</g>
</g>
<defs>
<filter id="filter0_f_23_3231" x="115" y="183" width="43" height="35" filterUnits="userSpaceOnUse" color-interpolation-filters="sRGB">
<feFlood flood-opacity="0" result="BackgroundImageFix"/>
<feBlend mode="normal" in="SourceGraphic" in2="BackgroundImageFix" result="shape"/>
<feGaussianBlur stdDeviation="6" result="effect1_foregroundBlur_23_3231"/>
</filter>
<filter id="filter1_f_23_3231" x="194" y="183" width="43" height="35" filterUnits="userSpaceOnUse" color-interpolation-filters="sRGB">
<feFlood flood-opacity="0" result="BackgroundImageFix"/>
<feBlend mode="normal" in="SourceGraphic" in2="BackgroundImageFix" result="shape"/>
<feGaussianBlur stdDeviation="6" result="effect1_foregroundBlur_23_3231"/>
</filter>
</defs>
</svg>
