<svg width="350" height="390" viewBox="0 0 350 390" fill="none" xmlns="http://www.w3.org/2000/svg">
<g id="Property 1=Female puff hair with bow tie hair clip">
<path id="hair back" d="M148.182 256.059C148.594 255.983 148.995 255.848 149.373 255.668L181.794 240.141C183.306 239.417 185.081 239.499 186.52 240.36L206.808 252.494C207.458 252.883 208.199 253.122 208.955 253.182C229.891 254.842 238.836 251.36 247.989 240.329C249.443 238.576 251.863 237.883 254.08 238.404C258.982 239.556 267.885 240.498 275.352 235.007C280.307 231.364 282.265 226.27 282.924 221.787C283.523 217.712 288.417 213.35 292.466 212.591C296.654 211.806 301.633 209.447 306.275 203.608C312.819 195.377 313.374 187.772 312.773 183.009C312.415 180.169 313.66 176.858 315.669 174.818C318.826 171.614 322.65 165.507 322.926 154.607C323.222 142.925 318.706 135.767 315.255 132.028C313.375 129.991 312.457 126.666 312.632 123.899C312.839 120.611 312.268 115.637 309.129 108.935C307.644 105.763 305.94 103.495 304.206 101.879C300.909 98.8085 296.094 90.9809 296.891 86.5468C298.307 78.6606 297.847 67.6247 289.624 56.128C279.472 41.9347 265.982 38.18 257.755 37.2939C254.236 36.9149 250.857 33.2363 249.624 29.9188C248.371 26.5464 245.598 22.4301 239.671 18.5442C230.542 12.5587 222.223 13.9701 217.892 15.4511C215.935 16.12 213.669 15.9973 211.882 14.9559C207.095 12.1649 196.761 7.44649 184.215 9.50509C172.727 11.3901 164.574 20.6341 160.361 26.6956C158.518 29.3464 154.561 30.2412 151.609 28.9335C145.872 26.3919 135.846 23.8696 122.638 28.0591C107.842 32.7523 104.013 45.0569 103.058 52.194C102.674 55.0629 100.319 57.5968 97.4695 58.104C91.0496 59.2469 79.9615 62.6493 70.7821 72.7789C60.7475 83.8523 60.6814 98.5014 61.4012 105.709C61.6531 108.232 60.265 110.815 58.245 112.348C54.3688 115.288 48.6413 121.615 46.5192 134.15C44.8774 143.847 47.3941 150.502 50.368 154.758C52.6318 157.997 52.8223 164.201 50.7358 167.557C48.4994 171.154 46.5192 176.384 46.5192 183.627C46.5192 191.269 49.7971 196.055 53.3419 198.998C56.4888 201.61 58.6555 208.317 58.9364 212.397C59.1766 215.885 60.8387 220.3 65.5489 225.492C72.7154 233.393 80.5326 233.34 85.9117 231.847C89.3187 230.902 93.8174 232.488 95.7708 235.435C97.7418 238.409 100.822 241.842 105.511 244.522C110.391 247.31 115.477 247.499 119.517 246.906C123.235 246.36 127.367 249.33 129.631 252.33C133.017 256.816 139.932 257.593 148.182 256.059Z" fill="#323232"/>
<g id="neck">
<rect id="neck_2" x="141" y="185" width="68.2139" height="128.131" rx="13.7769"  stroke="#323232" stroke-width="4" stroke-linecap="round"/>
<path id="neck shadow" d="M142.896 267.634V226.678H211.5C206.333 247.68 175.523 268.768 142.896 267.634Z" fill="#7E7E7E" fill-opacity="0.45"/>
</g>
<g id="Face">
<g id="ears">
<path id="left ear" d="M131 182.5C131 194.189 120.45 204 107 204C93.5501 204 83 194.189 83 182.5C83 170.811 93.5501 161 107 161C120.45 161 131 170.811 131 182.5Z"  stroke="#323232" stroke-width="4"/>
<path id="right ear" d="M218 182.5C218 194.189 228.55 204 242 204C255.45 204 266 194.189 266 182.5C266 170.811 255.45 161 242 161C228.55 161 218 170.811 218 182.5Z"  stroke="#323232" stroke-width="4"/>
</g>
<path id="face" d="M241 172.261C241 194.713 235.042 211.834 223.986 223.337C212.941 234.828 196.532 241 175.03 241C153.526 241 136.842 234.827 125.529 223.321C114.211 211.81 108 194.69 108 172.261C108 149.804 114.232 126.379 125.779 108.629C137.311 90.9028 154.009 79 175.03 79C196.043 79 212.472 90.8934 223.74 108.612C235.025 126.358 241 149.787 241 172.261Z"  stroke="#323232" stroke-width="4" stroke-linecap="round"/>
<path id="nose" d="M175 171C173.029 177.812 172 181.371 172 188.458C174.64 189.72 177.163 190.036 181.5 190" stroke="#323232" stroke-width="4" stroke-linecap="round" stroke-linejoin="round"/>
<g id="eyes">
<g id="Left">
<path id="left" d="M139.768 182.225C141.829 182.225 143.657 181.11 144.953 179.382C146.249 177.655 147.035 175.291 147.035 172.702C147.035 170.112 146.249 167.748 144.953 166.021C143.657 164.293 141.829 163.178 139.768 163.178C137.706 163.178 135.878 164.293 134.582 166.021C133.287 167.748 132.5 170.112 132.5 172.702C132.5 175.291 133.287 177.655 134.582 179.382C135.878 181.11 137.706 182.225 139.768 182.225Z" fill="#323232" stroke="#323232" stroke-linecap="round"/>
<circle id="hightlight" cx="142.616" cy="170.487" r="2.5"  stroke="#323232"/>
</g>
<g id="right">
<path id="right_2" d="M211.768 182.225C213.829 182.225 215.657 181.11 216.953 179.382C218.249 177.655 219.035 175.291 219.035 172.702C219.035 170.112 218.249 167.748 216.953 166.021C215.657 164.293 213.829 163.178 211.768 163.178C209.706 163.178 207.878 164.293 206.582 166.021C205.287 167.748 204.5 170.112 204.5 172.702C204.5 175.291 205.287 177.655 206.582 179.382C207.878 181.11 209.706 182.225 211.768 182.225Z" fill="#323232" stroke="#323232" stroke-linecap="round"/>
<circle id="highlight" cx="214.616" cy="170.487" r="2" />
</g>
</g>
<path id="mouth" d="M167 205.5C170 209.167 177.8 214.3 185 205.5" stroke="#323232" stroke-width="4" stroke-linecap="round" stroke-linejoin="round"/>
<g id="blushes">
<g id="Ellipse 46" filter="url(#filter0_f_23_1014)">
<ellipse cx="135.5" cy="200.5" rx="9.5" ry="5.5" fill="#FC9D80"/>
</g>
<g id="Ellipse 47" filter="url(#filter1_f_23_1014)">
<ellipse cx="214.5" cy="200.5" rx="9.5" ry="5.5" fill="#FC9D80"/>
</g>
</g>
<g id="Female hair bangs">
<path id="hair bangs" d="M194 108C172.149 150.401 153.636 159.262 106.5 163.5C104.5 95.5 112.661 85.8036 183.5 75C241.144 94.2209 241.119 112.113 242.5 163.5C207.933 153.649 206.344 139.803 194 108Z" fill="#323232"/>
</g>
</g>
</g>
<defs>
<filter id="filter0_f_23_1014" x="114" y="183" width="43" height="35" filterUnits="userSpaceOnUse" color-interpolation-filters="sRGB">
<feFlood flood-opacity="0" result="BackgroundImageFix"/>
<feBlend mode="normal" in="SourceGraphic" in2="BackgroundImageFix" result="shape"/>
<feGaussianBlur stdDeviation="6" result="effect1_foregroundBlur_23_1014"/>
</filter>
<filter id="filter1_f_23_1014" x="193" y="183" width="43" height="35" filterUnits="userSpaceOnUse" color-interpolation-filters="sRGB">
<feFlood flood-opacity="0" result="BackgroundImageFix"/>
<feBlend mode="normal" in="SourceGraphic" in2="BackgroundImageFix" result="shape"/>
<feGaussianBlur stdDeviation="6" result="effect1_foregroundBlur_23_1014"/>
</filter>
</defs>
</svg>
