<svg width="350" height="390" viewBox="0 0 350 390" fill="none" xmlns="http://www.w3.org/2000/svg">
<g id="Property 1=2 braids">
<path id="hair back" fill-rule="evenodd" clip-rule="evenodd" d="M267.7 207.17C275.837 191.386 280.162 172.247 280.162 149.822C280.162 87.2113 241.335 41 181.035 41C120.736 41 71.853 91.7559 71.853 154.367C71.853 174.181 78.0718 192.957 88.3561 209.054C75.8578 214.487 67.7719 227.57 69.3093 241.835C69.3397 242.116 69.3736 242.397 69.4111 242.676C57.1789 247.14 49.0856 259.497 50.5437 273.025C50.8634 275.992 51.6199 278.805 52.7423 281.409L30.2441 290.532C23.1418 293.412 21.7861 302.883 27.7953 307.64L52.4785 327.179C58.4876 331.936 67.3944 328.443 68.5674 320.869L72.1092 298C75.4023 298.853 78.9023 299.137 82.4844 298.75C97.48 297.134 108.568 284.358 108.377 269.576C119.305 267.048 127.869 259.022 131.388 248.829C149.722 258.56 170.323 262.819 190.195 259.322C201.933 257.257 212.689 254.012 222.363 249.6C226.76 257.498 234.428 263.413 243.707 265.366C243.809 280.15 255.149 292.703 270.173 294.021C271.303 294.12 272.423 294.153 273.529 294.123L277.227 315.219C278.55 322.767 287.524 326.083 293.438 321.208L317.728 301.182C323.642 296.307 322.098 286.865 314.94 284.127L298.74 277.929C300.278 274.803 301.274 271.345 301.597 267.666C302.786 254.112 294.449 241.919 282.131 237.698C282.163 237.418 282.191 237.137 282.216 236.855C283.289 224.627 277.336 213.403 267.7 207.17Z" fill="#323232"/>
<path id="hair tie" d="M284.498 283.876L273.76 286.138C271.58 286.597 270.644 289.189 272.027 290.936L278.457 299.057C279.841 300.803 282.578 300.486 283.525 298.469L288.188 288.536L298.926 286.274C301.106 285.814 302.043 283.223 300.66 281.476L294.229 273.355C292.846 271.608 290.109 271.926 289.162 273.942L284.498 283.876Z"  fill-opacity="0.4"/>
<path id="hair tie_2" d="M60.8471 291.64C60.8729 291.711 60.9014 291.781 60.9329 291.851L64.7346 300.307C65.6409 302.323 68.3419 302.7 69.7656 301.009L74.9438 294.859C76.3674 293.169 75.536 290.571 73.3953 290.021L64.4154 287.715C64.3411 287.696 64.2671 287.68 64.1936 287.666C64.1678 287.596 64.1393 287.526 64.1079 287.456L60.3061 279C59.3998 276.984 56.6988 276.607 55.2751 278.298L50.097 284.447C48.6733 286.138 49.5047 288.735 51.6454 289.285L60.6253 291.592C60.6996 291.611 60.7736 291.627 60.8471 291.64Z"  fill-opacity="0.4"/>
<g id="neck">
<rect id="neck_2" x="141" y="185" width="68.2139" height="128.131" rx="13.7769"  stroke="#323232" stroke-width="4" stroke-linecap="round"/>
<path id="neck shadow" d="M142.896 267.634V226.678H211.5C206.333 247.68 175.523 268.768 142.896 267.634Z" fill="#7E7E7E" fill-opacity="0.45"/>
</g>
<g id="Face">
<g id="ears">
<path id="left ear" d="M132 180.5C132 192.189 121.45 202 108 202C94.5501 202 84 192.189 84 180.5C84 168.811 94.5501 159 108 159C121.45 159 132 168.811 132 180.5Z"  stroke="#323232" stroke-width="4"/>
<path id="right ear" d="M219 180.5C219 192.189 229.55 202 243 202C256.45 202 267 192.189 267 180.5C267 168.811 256.45 159 243 159C229.55 159 219 168.811 219 180.5Z"  stroke="#323232" stroke-width="4"/>
</g>
<path id="face" d="M242 170.261C242 192.713 236.042 209.834 224.986 221.337C213.941 232.828 197.532 239 176.03 239C154.526 239 137.842 232.827 126.529 221.321C115.211 209.81 109 192.69 109 170.261C109 147.804 115.232 124.379 126.779 106.629C138.311 88.9028 155.009 77 176.03 77C197.043 77 213.472 88.8934 224.74 106.612C236.025 124.358 242 147.787 242 170.261Z"  stroke="#323232" stroke-width="4" stroke-linecap="round"/>
<path id="nose" d="M176 174C174.029 180.812 173 184.371 173 191.458C175.64 192.72 178.163 193.036 182.5 193" stroke="#323232" stroke-width="4" stroke-linecap="round" stroke-linejoin="round"/>
<g id="eyes">
<g id="Left">
<path id="left" d="M140.768 180.225C142.829 180.225 144.657 179.11 145.953 177.382C147.249 175.655 148.035 173.291 148.035 170.702C148.035 168.112 147.249 165.748 145.953 164.021C144.657 162.293 142.829 161.178 140.768 161.178C138.706 161.178 136.878 162.293 135.582 164.021C134.287 165.748 133.5 168.112 133.5 170.702C133.5 173.291 134.287 175.655 135.582 177.382C136.878 179.11 138.706 180.225 140.768 180.225Z" fill="#323232" stroke="#323232" stroke-linecap="round"/>
<circle id="hightlight" cx="143.616" cy="168.487" r="2.5"  stroke="#323232"/>
</g>
<g id="right">
<path id="right_2" d="M212.768 180.225C214.829 180.225 216.657 179.11 217.953 177.382C219.249 175.655 220.035 173.291 220.035 170.702C220.035 168.112 219.249 165.748 217.953 164.021C216.657 162.293 214.829 161.178 212.768 161.178C210.706 161.178 208.878 162.293 207.582 164.021C206.287 165.748 205.5 168.112 205.5 170.702C205.5 173.291 206.287 175.655 207.582 177.382C208.878 179.11 210.706 180.225 212.768 180.225Z" fill="#323232" stroke="#323232" stroke-linecap="round"/>
<circle id="highlight" cx="215.616" cy="168.487" r="2" />
</g>
</g>
<path id="mouth" d="M168 208.5C171 212.167 178.8 217.3 186 208.5" stroke="#323232" stroke-width="4" stroke-linecap="round" stroke-linejoin="round"/>
<g id="blushes">
<g id="Ellipse 46" filter="url(#filter0_f_23_1019)">
<ellipse cx="136.5" cy="198.5" rx="9.5" ry="5.5" fill="#FC9D80"/>
</g>
<g id="Ellipse 47" filter="url(#filter1_f_23_1019)">
<ellipse cx="215.5" cy="198.5" rx="9.5" ry="5.5" fill="#FC9D80"/>
</g>
</g>
</g>
<g id="Female hair bangs">
<path id="hair bangs" d="M208.838 114.678C180.838 154.678 155.136 157.762 108 162C116.748 100.794 112.5 79 184.5 76C242 79.5 240.619 110.613 242 162C224.838 152.678 221.182 146.481 208.838 114.678Z" fill="#323232"/>
</g>
</g>
<defs>
<filter id="filter0_f_23_1019" x="115" y="181" width="43" height="35" filterUnits="userSpaceOnUse" color-interpolation-filters="sRGB">
<feFlood flood-opacity="0" result="BackgroundImageFix"/>
<feBlend mode="normal" in="SourceGraphic" in2="BackgroundImageFix" result="shape"/>
<feGaussianBlur stdDeviation="6" result="effect1_foregroundBlur_23_1019"/>
</filter>
<filter id="filter1_f_23_1019" x="194" y="181" width="43" height="35" filterUnits="userSpaceOnUse" color-interpolation-filters="sRGB">
<feFlood flood-opacity="0" result="BackgroundImageFix"/>
<feBlend mode="normal" in="SourceGraphic" in2="BackgroundImageFix" result="shape"/>
<feGaussianBlur stdDeviation="6" result="effect1_foregroundBlur_23_1019"/>
</filter>
</defs>
</svg>
